<?xml version="1.0" encoding="utf-8"?>
<!-- Generated by IcoMoon.io -->
<!DOCTYPE svg PUBLIC "-//W3C//DTD SVG 1.1//EN" "http://www.w3.org/Graphics/SVG/1.1/DTD/svg11.dtd">
<svg version="1.1" xmlns="http://www.w3.org/2000/svg" xmlns:xlink="http://www.w3.org/1999/xlink" width="42" height="42" viewBox="0 0 42 42">
<path d="M22.758 29.156v4.945q0 1.57-0.914 1.57-0.539 0-1.055-0.516v-7.055q0.516-0.516 1.055-0.516 0.914 0 0.914 1.57zM30.68 29.18v1.078h-2.109v-1.078q0-1.594 1.055-1.594t1.055 1.594zM8.039 24.070h2.508v-2.203h-7.313v2.203h2.461v13.336h2.344v-13.336zM14.789 37.406h2.086v-11.578h-2.086v8.859q-0.703 0.984-1.336 0.984-0.422 0-0.492-0.492-0.023-0.070-0.023-0.82v-8.531h-2.086v9.164q0 1.148 0.187 1.711 0.281 0.867 1.359 0.867 1.125 0 2.391-1.43v1.266zM24.844 33.938v-4.617q0-1.711-0.211-2.32-0.398-1.313-1.664-1.313-1.172 0-2.18 1.266v-5.086h-2.086v15.539h2.086v-1.125q1.055 1.289 2.18 1.289 1.266 0 1.664-1.289 0.211-0.633 0.211-2.344zM32.766 33.703v-0.305h-2.133q0 1.195-0.047 1.43-0.164 0.844-0.937 0.844-1.078 0-1.078-1.617v-2.039h4.195v-2.414q0-1.852-0.633-2.719-0.914-1.195-2.484-1.195-1.594 0-2.508 1.195-0.656 0.867-0.656 2.719v4.055q0 1.852 0.68 2.719 0.914 1.195 2.531 1.195 1.688 0 2.531-1.242 0.422-0.633 0.492-1.266 0.047-0.211 0.047-1.359zM18.516 12.305v-4.922q0-1.617-1.008-1.617t-1.008 1.617v4.922q0 1.641 1.008 1.641t1.008-1.641zM35.367 29.906q0 5.484-0.609 8.203-0.328 1.383-1.359 2.32t-2.391 1.078q-4.313 0.492-13.008 0.492t-13.008-0.492q-1.359-0.141-2.402-1.078t-1.348-2.32q-0.609-2.625-0.609-8.203 0-5.484 0.609-8.203 0.328-1.383 1.359-2.32t2.414-1.102q4.289-0.469 12.984-0.469t13.008 0.469q1.359 0.164 2.402 1.102t1.348 2.32q0.609 2.625 0.609 8.203zM11.977 0h2.391l-2.836 9.352v6.352h-2.344v-6.352q-0.328-1.734-1.43-4.969-0.867-2.414-1.523-4.383h2.484l1.664 6.164zM20.648 7.805v4.102q0 1.898-0.656 2.766-0.867 1.195-2.484 1.195-1.57 0-2.461-1.195-0.656-0.891-0.656-2.766v-4.102q0-1.875 0.656-2.742 0.891-1.195 2.461-1.195 1.617 0 2.484 1.195 0.656 0.867 0.656 2.742zM28.5 4.008v11.695h-2.133v-1.289q-1.242 1.453-2.414 1.453-1.078 0-1.383-0.867-0.187-0.562-0.187-1.758v-9.234h2.133v8.602q0 0.773 0.023 0.82 0.070 0.516 0.492 0.516 0.633 0 1.336-1.008v-8.93h2.133z" fill="#444444"></path>
</svg>
